<?xml version="1.0" encoding="UTF-8"?>
<svg id="Layer_2" data-name="Layer 2" xmlns="http://www.w3.org/2000/svg" viewBox="0 0 355.61 38.55">
  <defs>
    <style>
      .cls-1 {
        isolation: isolate;
      }

      .cls-2, .cls-3 {
        stroke-width: 0px;
      }

      .cls-3 {
        fill: #fff;
      }
    </style>
  </defs>
  <g class="cls-1">
    <g class="cls-1">
      <path class="cls-2" d="m16.16,24.07h-2c.13.53.2,1.2.2,2s-.07,1.43-.2,2c.13.53.2,1.2.2,2s-.07,1.43-.2,2h-3.99c-.13-.57-.2-1.23-.2-2s.07-1.46.2-2c-.13-.57-.2-1.23-.2-2s.07-1.46.2-2H.2c-.13-.57-.2-1.23-.2-2s.07-1.46.2-2h1.5c-.13-.57-.2-1.23-.2-2s.07-1.46.2-2h1.5c-.13-.57-.2-1.23-.2-2s.07-1.46.2-2h1.5c-.13-.57-.2-1.23-.2-2s.07-1.46.2-2h2.49c.13.53.2,1.2.2,2s-.07,1.43-.2,2h-1.5c.13.53.2,1.2.2,2s-.07,1.43-.2,2h-1.5c.13.53.2,1.2.2,2s-.07,1.43-.2,2h5.99c-.13-.57-.2-1.23-.2-2s.07-1.46.2-2c-.13-.57-.2-1.23-.2-2s.07-1.46.2-2c-.13-.57-.2-1.23-.2-2s.07-1.46.2-2h-2.99c-.13-.57-.2-1.23-.2-2s.07-1.46.2-2h6.98c.13.53.2,1.2.2,2s-.07,1.43-.2,2c.13.53.2,1.2.2,2s-.07,1.43-.2,2c.13.53.2,1.2.2,2s-.07,1.43-.2,2c.13.53.2,1.2.2,2s-.07,1.43-.2,2h2c.13.53.2,1.2.2,2s-.07,1.43-.2,2Z"/>
      <path class="cls-2" d="m25.84,26.06c0,.76-.07,1.43-.2,2h-2.49c-.13-.57-.2-1.23-.2-2s.07-1.46.2-2h-1.5c-.13-.57-.2-1.23-.2-2s.07-1.46.2-2c-.13-.57-.2-1.23-.2-2s.07-1.46.2-2c-.13-.57-.2-1.23-.2-2s.07-1.46.2-2h1.5c-.13-.57-.2-1.23-.2-2s.07-1.46.2-2h2.49c.13.53.2,1.2.2,2s-.07,1.43-.2,2c.13.53.2,1.2.2,2s-.07,1.43-.2,2c.13.53.2,1.2.2,2s-.07,1.43-.2,2c.13.53.2,1.2.2,2s-.07,1.43-.2,2c.13.53.2,1.2.2,2Zm4.79-17.96h-4.99c-.13-.57-.2-1.23-.2-2s.07-1.46.2-2h4.99c.13.53.2,1.2.2,2s-.07,1.43-.2,2Zm-4.99,19.96h4.99c.13.53.2,1.2.2,2s-.07,1.43-.2,2h-4.99c-.13-.57-.2-1.23-.2-2s.07-1.46.2-2Zm9.18-9.98c0,.76-.07,1.43-.2,2,.13.53.2,1.2.2,2s-.07,1.43-.2,2h-1.5c.13.53.2,1.2.2,2s-.07,1.43-.2,2h-2.49c-.13-.57-.2-1.23-.2-2s.07-1.46.2-2c-.13-.57-.2-1.23-.2-2s.07-1.46.2-2c-.13-.57-.2-1.23-.2-2s.07-1.46.2-2c-.13-.57-.2-1.23-.2-2s.07-1.46.2-2c-.13-.57-.2-1.23-.2-2s.07-1.46.2-2h2.49c.13.53.2,1.2.2,2s-.07,1.43-.2,2h1.5c.13.53.2,1.2.2,2s-.07,1.43-.2,2c.13.53.2,1.2.2,2Z"/>
      <path class="cls-2" d="m56.08,24.07h-2c.13.53.2,1.2.2,2s-.07,1.43-.2,2c.13.53.2,1.2.2,2s-.07,1.43-.2,2h-3.99c-.13-.57-.2-1.23-.2-2s.07-1.46.2-2c-.13-.57-.2-1.23-.2-2s.07-1.46.2-2h-9.98c-.13-.57-.2-1.23-.2-2s.07-1.46.2-2h1.5c-.13-.57-.2-1.23-.2-2s.07-1.46.2-2h1.5c-.13-.57-.2-1.23-.2-2s.07-1.46.2-2h1.5c-.13-.57-.2-1.23-.2-2s.07-1.46.2-2h2.49c.13.53.2,1.2.2,2s-.07,1.43-.2,2h-1.5c.13.53.2,1.2.2,2s-.07,1.43-.2,2h-1.5c.13.53.2,1.2.2,2s-.07,1.43-.2,2h5.99c-.13-.57-.2-1.23-.2-2s.07-1.46.2-2c-.13-.57-.2-1.23-.2-2s.07-1.46.2-2c-.13-.57-.2-1.23-.2-2s.07-1.46.2-2h-2.99c-.13-.57-.2-1.23-.2-2s.07-1.46.2-2h6.98c.13.53.2,1.2.2,2s-.07,1.43-.2,2c.13.53.2,1.2.2,2s-.07,1.43-.2,2c.13.53.2,1.2.2,2s-.07,1.43-.2,2c.13.53.2,1.2.2,2s-.07,1.43-.2,2h2c.13.53.2,1.2.2,2s-.07,1.43-.2,2Z"/>
      <path class="cls-2" d="m70.54,12.09c.13.53.2,1.2.2,2s-.07,1.43-.2,2h-4.99c-.13-.57-.2-1.23-.2-2s.07-1.46.2-2c-.13-.57-.2-1.23-.2-2s.07-1.46.2-2h4.99c.13.53.2,1.2.2,2s-.07,1.43-.2,2Zm.2,13.97c0,.76-.07,1.43-.2,2,.13.53.2,1.2.2,2s-.07,1.43-.2,2h-4.99c-.13-.57-.2-1.23-.2-2s.07-1.46.2-2c-.13-.57-.2-1.23-.2-2s.07-1.46.2-2h4.99c.13.53.2,1.2.2,2Z"/>
      <path class="cls-2" d="m195.97,10.1c0,.76-.07,1.43-.2,2,.13.53.2,1.2.2,2s-.07,1.43-.2,2c.13.53.2,1.2.2,2s-.07,1.43-.2,2c.13.53.2,1.2.2,2s-.07,1.43-.2,2c.13.53.2,1.2.2,2s-.07,1.43-.2,2c.13.53.2,1.2.2,2s-.07,1.43-.2,2h-3.99c-.13-.57-.2-1.23-.2-2s.07-1.46.2-2h-2.49c-.13-.57-.2-1.23-.2-2s.07-1.46.2-2h-1.5c-.13-.57-.2-1.23-.2-2s.07-1.46.2-2h-2c-.13-.57-.2-1.23-.2-2s.07-1.46.2-2h-2c.13.53.2,1.2.2,2s-.07,1.43-.2,2c.13.53.2,1.2.2,2s-.07,1.43-.2,2c.13.53.2,1.2.2,2s-.07,1.43-.2,2c.13.53.2,1.2.2,2s-.07,1.43-.2,2h-3.99c-.13-.57-.2-1.23-.2-2s.07-1.46.2-2c-.13-.57-.2-1.23-.2-2s.07-1.46.2-2c-.13-.57-.2-1.23-.2-2s.07-1.46.2-2c-.13-.57-.2-1.23-.2-2s.07-1.46.2-2c-.13-.57-.2-1.23-.2-2s.07-1.46.2-2c-.13-.57-.2-1.23-.2-2s.07-1.46.2-2c-.13-.57-.2-1.23-.2-2s.07-1.46.2-2h4.99c.13.53.2,1.2.2,2s-.07,1.43-.2,2h1.5c.13.53.2,1.2.2,2s-.07,1.43-.2,2h1.5c.13.53.2,1.2.2,2s-.07,1.43-.2,2h2c.13.53.2,1.2.2,2s-.07,1.43-.2,2h2c-.13-.57-.2-1.23-.2-2s.07-1.46.2-2c-.13-.57-.2-1.23-.2-2s.07-1.46.2-2c-.13-.57-.2-1.23-.2-2s.07-1.46.2-2c-.13-.57-.2-1.23-.2-2s.07-1.46.2-2h3.99c.13.53.2,1.2.2,2s-.07,1.43-.2,2c.13.53.2,1.2.2,2Z"/>
      <path class="cls-2" d="m215.92,18.08c0,.76-.07,1.43-.2,2,.13.53.2,1.2.2,2s-.07,1.43-.2,2h-1.5c.13.53.2,1.2.2,2s-.07,1.43-.2,2h-2.5c.13.53.2,1.2.2,2s-.07,1.43-.2,2h-7.98c-.13-.57-.2-1.23-.2-2s.07-1.46.2-2h-2.49c-.13-.57-.2-1.23-.2-2s.07-1.46.2-2h-1.5c-.13-.57-.2-1.23-.2-2s.07-1.46.2-2c-.13-.57-.2-1.23-.2-2s.07-1.46.2-2c-.13-.57-.2-1.23-.2-2s.07-1.46.2-2h1.5c-.13-.57-.2-1.23-.2-2s.07-1.46.2-2h2.49c-.13-.57-.2-1.23-.2-2s.07-1.46.2-2h7.98c.13.53.2,1.2.2,2s-.07,1.43-.2,2h2.5c.13.53.2,1.2.2,2s-.07,1.43-.2,2h1.5c.13.53.2,1.2.2,2s-.07,1.43-.2,2c.13.53.2,1.2.2,2Zm-4.39,3.99c0-.8.07-1.46.2-2-.13-.57-.2-1.23-.2-2s.07-1.46.2-2c-.13-.57-.2-1.23-.2-2s.07-1.46.2-2h-1.5c-.13-.57-.2-1.23-.2-2s.07-1.46.2-2h-4.99c.13.53.2,1.2.2,2s-.07,1.43-.2,2h-1.5c.13.53.2,1.2.2,2s-.07,1.43-.2,2c.13.53.2,1.2.2,2s-.07,1.43-.2,2c.13.53.2,1.2.2,2s-.07,1.43-.2,2h1.5c.13.53.2,1.2.2,2s-.07,1.43-.2,2h4.99c-.13-.57-.2-1.23-.2-2s.07-1.46.2-2h1.5c-.13-.57-.2-1.23-.2-2Z"/>
      <path class="cls-2" d="m235.68,8.1h-5.99c.13.53.2,1.2.2,2s-.07,1.43-.2,2c.13.53.2,1.2.2,2s-.07,1.43-.2,2c.13.53.2,1.2.2,2s-.07,1.43-.2,2c.13.53.2,1.2.2,2s-.07,1.43-.2,2c.13.53.2,1.2.2,2s-.07,1.43-.2,2c.13.53.2,1.2.2,2s-.07,1.43-.2,2h-3.99c-.13-.57-.2-1.23-.2-2s.07-1.46.2-2c-.13-.57-.2-1.23-.2-2s.07-1.46.2-2c-.13-.57-.2-1.23-.2-2s.07-1.46.2-2c-.13-.57-.2-1.23-.2-2s.07-1.46.2-2c-.13-.57-.2-1.23-.2-2s.07-1.46.2-2c-.13-.57-.2-1.23-.2-2s.07-1.46.2-2h-5.99c-.13-.57-.2-1.23-.2-2s.07-1.46.2-2h15.96c.13.53.2,1.2.2,2s-.07,1.43-.2,2Z"/>
      <path class="cls-2" d="m273.79,18.08c0,.76-.07,1.43-.2,2h-7.98c.13.53.2,1.2.2,2s-.07,1.43-.2,2c.13.53.2,1.2.2,2s-.07,1.43-.2,2c.13.53.2,1.2.2,2s-.07,1.43-.2,2h-3.99c-.13-.57-.2-1.23-.2-2s.07-1.46.2-2c-.13-.57-.2-1.23-.2-2s.07-1.46.2-2c-.13-.57-.2-1.23-.2-2s.07-1.46.2-2c-.13-.57-.2-1.23-.2-2s.07-1.46.2-2c-.13-.57-.2-1.23-.2-2s.07-1.46.2-2c-.13-.57-.2-1.23-.2-2s.07-1.46.2-2c-.13-.57-.2-1.23-.2-2s.07-1.46.2-2h11.97c.13.53.2,1.2.2,2s-.07,1.43-.2,2h-7.98c.13.53.2,1.2.2,2s-.07,1.43-.2,2c.13.53.2,1.2.2,2s-.07,1.43-.2,2h7.98c.13.53.2,1.2.2,2Z"/>
      <path class="cls-2" d="m295.74,18.08c0,.76-.07,1.43-.2,2,.13.53.2,1.2.2,2s-.07,1.43-.2,2h-1.5c.13.53.2,1.2.2,2s-.07,1.43-.2,2h-2.49c.13.53.2,1.2.2,2s-.07,1.43-.2,2h-7.98c-.13-.57-.2-1.23-.2-2s.07-1.46.2-2h-2.5c-.13-.57-.2-1.23-.2-2s.07-1.46.2-2h-1.5c-.13-.57-.2-1.23-.2-2s.07-1.46.2-2c-.13-.57-.2-1.23-.2-2s.07-1.46.2-2c-.13-.57-.2-1.23-.2-2s.07-1.46.2-2h1.5c-.13-.57-.2-1.23-.2-2s.07-1.46.2-2h2.5c-.13-.57-.2-1.23-.2-2s.07-1.46.2-2h7.98c.13.53.2,1.2.2,2s-.07,1.43-.2,2h2.49c.13.53.2,1.2.2,2s-.07,1.43-.2,2h1.5c.13.53.2,1.2.2,2s-.07,1.43-.2,2c.13.53.2,1.2.2,2Zm-4.39,3.99c0-.8.07-1.46.2-2-.13-.57-.2-1.23-.2-2s.07-1.46.2-2c-.13-.57-.2-1.23-.2-2s.07-1.46.2-2h-1.5c-.13-.57-.2-1.23-.2-2s.07-1.46.2-2h-4.99c.13.53.2,1.2.2,2s-.07,1.43-.2,2h-1.5c.13.53.2,1.2.2,2s-.07,1.43-.2,2c.13.53.2,1.2.2,2s-.07,1.43-.2,2c.13.53.2,1.2.2,2s-.07,1.43-.2,2h1.5c.13.53.2,1.2.2,2s-.07,1.43-.2,2h4.99c-.13-.57-.2-1.23-.2-2s.07-1.46.2-2h1.5c-.13-.57-.2-1.23-.2-2Z"/>
      <path class="cls-2" d="m315.7,10.1c0,.76-.07,1.43-.2,2,.13.53.2,1.2.2,2s-.07,1.43-.2,2c.13.53.2,1.2.2,2s-.07,1.43-.2,2c.13.53.2,1.2.2,2s-.07,1.43-.2,2c.13.53.2,1.2.2,2s-.07,1.43-.2,2h-2c.13.53.2,1.2.2,2s-.07,1.43-.2,2h-11.97c-.13-.57-.2-1.23-.2-2s.07-1.46.2-2h-2c-.13-.57-.2-1.23-.2-2s.07-1.46.2-2c-.13-.57-.2-1.23-.2-2s.07-1.46.2-2c-.13-.57-.2-1.23-.2-2s.07-1.46.2-2c-.13-.57-.2-1.23-.2-2s.07-1.46.2-2c-.13-.57-.2-1.23-.2-2s.07-1.46.2-2c-.13-.57-.2-1.23-.2-2s.07-1.46.2-2h3.99c.13.53.2,1.2.2,2s-.07,1.43-.2,2c.13.53.2,1.2.2,2s-.07,1.43-.2,2c.13.53.2,1.2.2,2s-.07,1.43-.2,2c.13.53.2,1.2.2,2s-.07,1.43-.2,2c.13.53.2,1.2.2,2s-.07,1.43-.2,2c.13.53.2,1.2.2,2s-.07,1.43-.2,2h7.98c-.13-.57-.2-1.23-.2-2s.07-1.46.2-2c-.13-.57-.2-1.23-.2-2s.07-1.46.2-2c-.13-.57-.2-1.23-.2-2s.07-1.46.2-2c-.13-.57-.2-1.23-.2-2s.07-1.46.2-2c-.13-.57-.2-1.23-.2-2s.07-1.46.2-2c-.13-.57-.2-1.23-.2-2s.07-1.46.2-2h3.99c.13.53.2,1.2.2,2s-.07,1.43-.2,2c.13.53.2,1.2.2,2Z"/>
      <path class="cls-2" d="m335.66,10.1c0,.76-.07,1.43-.2,2,.13.53.2,1.2.2,2s-.07,1.43-.2,2c.13.53.2,1.2.2,2s-.07,1.43-.2,2c.13.53.2,1.2.2,2s-.07,1.43-.2,2c.13.53.2,1.2.2,2s-.07,1.43-.2,2c.13.53.2,1.2.2,2s-.07,1.43-.2,2h-3.99c-.13-.57-.2-1.23-.2-2s.07-1.46.2-2h-2.49c-.13-.57-.2-1.23-.2-2s.07-1.46.2-2h-1.5c-.13-.57-.2-1.23-.2-2s.07-1.46.2-2h-2c-.13-.57-.2-1.23-.2-2s.07-1.46.2-2h-2c.13.53.2,1.2.2,2s-.07,1.43-.2,2c.13.53.2,1.2.2,2s-.07,1.43-.2,2c.13.53.2,1.2.2,2s-.07,1.43-.2,2c.13.53.2,1.2.2,2s-.07,1.43-.2,2h-3.99c-.13-.57-.2-1.23-.2-2s.07-1.46.2-2c-.13-.57-.2-1.23-.2-2s.07-1.46.2-2c-.13-.57-.2-1.23-.2-2s.07-1.46.2-2c-.13-.57-.2-1.23-.2-2s.07-1.46.2-2c-.13-.57-.2-1.23-.2-2s.07-1.46.2-2c-.13-.57-.2-1.23-.2-2s.07-1.46.2-2c-.13-.57-.2-1.23-.2-2s.07-1.46.2-2h4.99c.13.53.2,1.2.2,2s-.07,1.43-.2,2h1.5c.13.53.2,1.2.2,2s-.07,1.43-.2,2h1.5c.13.53.2,1.2.2,2s-.07,1.43-.2,2h2c.13.53.2,1.2.2,2s-.07,1.43-.2,2h2c-.13-.57-.2-1.23-.2-2s.07-1.46.2-2c-.13-.57-.2-1.23-.2-2s.07-1.46.2-2c-.13-.57-.2-1.23-.2-2s.07-1.46.2-2c-.13-.57-.2-1.23-.2-2s.07-1.46.2-2h3.99c.13.53.2,1.2.2,2s-.07,1.43-.2,2c.13.53.2,1.2.2,2Z"/>
      <path class="cls-2" d="m355.61,18.08c0,.76-.07,1.43-.2,2,.13.53.2,1.2.2,2s-.07,1.43-.2,2h-2c.13.53.2,1.2.2,2s-.07,1.43-.2,2h-2c.13.53.2,1.2.2,2s-.07,1.43-.2,2h-11.97c-.13-.57-.2-1.23-.2-2s.07-1.46.2-2c-.13-.57-.2-1.23-.2-2s.07-1.46.2-2c-.13-.57-.2-1.23-.2-2s.07-1.46.2-2c-.13-.57-.2-1.23-.2-2s.07-1.46.2-2c-.13-.57-.2-1.23-.2-2s.07-1.46.2-2c-.13-.57-.2-1.23-.2-2s.07-1.46.2-2c-.13-.57-.2-1.23-.2-2s.07-1.46.2-2h11.97c.13.53.2,1.2.2,2s-.07,1.43-.2,2h2c.13.53.2,1.2.2,2s-.07,1.43-.2,2h2c.13.53.2,1.2.2,2s-.07,1.43-.2,2c.13.53.2,1.2.2,2Zm-4.39,3.99c0-.8.07-1.46.2-2-.13-.57-.2-1.23-.2-2s.07-1.46.2-2c-.13-.57-.2-1.23-.2-2s.07-1.46.2-2h-2c-.13-.57-.2-1.23-.2-2s.07-1.46.2-2h-5.99c.13.53.2,1.2.2,2s-.07,1.43-.2,2c.13.53.2,1.2.2,2s-.07,1.43-.2,2c.13.53.2,1.2.2,2s-.07,1.43-.2,2c.13.53.2,1.2.2,2s-.07,1.43-.2,2c.13.53.2,1.2.2,2s-.07,1.43-.2,2h5.99c-.13-.57-.2-1.23-.2-2s.07-1.46.2-2h2c-.13-.57-.2-1.23-.2-2Z"/>
    </g>
  </g>
  <g>
    <path class="cls-2" d="m97.99,12.83v-5.12h5.2v-2.61h7.83l-.03-.02v2.52c.89.05,1.68.09,2.49.14v2.56h-2.55c-.05-.87-.09-1.65-.14-2.46h-2.39c-.04.86-.07,1.64-.11,2.49-.85.05-1.62.09-2.36.13v2.34h2.43v2.68h-5.03v5.16c1.25-.08,2.39-.23,3.52-.21,1.04.02,1.47-.32,1.33-1.39-.08-.58-.04-1.13.8-1.22,1.69-.19,1.68-.22,1.74-1.95,0-.27.04-.53.04-.8.05-1.62.9-2.37,2.54-2.25.07,0,.13.07.19.1.72.62-.84,2.2,1.07,2.38,2.22.2.98-1.64,1.6-2.56h9.94c.05-.36.1-.58.11-.8.07-1.69.07-1.65,1.75-1.92.3-.05.69-.5.76-.82.2-.9-.1-1.48-1.19-1.32-.98.15-1.36-.25-1.3-1.27.08-1.31.02-2.62.02-4.05h-5l.03.03V.06c.36-.03.65-.06.95-.06h11.8v2.56h-4.91v4.95h2.27c.04-.81.08-1.55.12-2.36.87-.04,1.65-.07,2.47-.11v-2.53h5.3v2.58l.03-.03c-1.36.06-2.73.13-4.09.18-.53.02-.93.07-1,.77-.18,1.75-.21,1.74-1.97,1.84-.18,0-.36.07-.65.13v4.97c-1.41,0-2.69.06-3.97-.02-.94-.06-1.19.3-1.15,1.17.06,1.32,0,2.64,0,4.1-.98-.05-2.09.21-2.47-.2-.45-.49-.28-1.55-.38-2.41h-5v5h-2.67v-2.41h-4.9c0,2.27.01,4.43,0,6.59,0,.7.4.8.96.79,1.64,0,3.27-.07,4.9.02,1.14.06,1.73-.21,1.55-1.48-.07-.48-.05-.96.7-1.04,1.8-.18,1.8-.22,1.96-1.96.01-.15.07-.29.18-.75,2.06,0,4.19-.1,6.29.04.98.06,1.27-.18,1.14-1.06-.18-1.21.4-1.51,1.5-1.44,1.23.08,2.46.02,3.67.02.21-2.61.21-2.54,1.77-2.6,1.08-.04,1.17.51,1.13,1.33-.04.78.2,1.72-1.13,1.54-.98-.14-1.54.16-1.37,1.27.14.96-.32,1.25-1.25,1.2-1.31-.07-2.62-.02-3.91-.02v2.48h4.98c.03.67.05,1.23.1,1.78.06.78-.26,1.09-1.06,1.04-.95-.06-1.91-.08-2.85,0-1.1.1-1.57-.28-1.39-1.38.18-1.1-.28-1.53-1.38-1.36-.33.05-.68,0-1.03,0h-5.18c0,1.4.04,2.61-.01,3.82-.04.87.35,1.12,1.16,1.11,2.32-.03,4.64,0,6.96,0,2.81,0,5.63.02,8.44-.03.37,0,1.04-.29,1.06-.5.16-1.38.18-2.77.24-4.12-.98-.16-2.07-.03-2.43-.48-.41-.52-.17-1.55-.21-2.39.99,0,2.06-.31,2.49.08.46.42.33,1.51.45,2.3h2.2c.04-.82.08-1.56.12-2.36.87-.04,1.65-.07,2.49-.11v-2.44h-5.12c0-.62.05-1.12,0-1.6-.11-.97.31-1.28,1.23-1.22.95.06,1.9-.02,2.85.02.72.03,1.02-.21,1-.98-.03-1.33.04-2.66.07-3.99l-.03.02h2.68v2.46h2.55v2.55c.9.05,1.67.09,2.53.14v10.27h-2.44v2.51h-2.55v2.57h-2.56v2.58c.8.05,1.61.09,2.45.14v5.01h-7.65v-2.43c-.9-.04-1.68-.08-2.55-.12-.04-.83-.07-1.61-.12-2.52h-2.53v-2.59h-12.86v-2.58h-10.35v-2.59h-2.6v-2.59h-7.67c-.04-.89-.08-1.67-.12-2.53h-2.45v-2.55h-2.53v-5.15c.84-.05,1.66-.09,2.48-.13.08,1.65.16,3.3.23,4.92,1.97.26,2.23.18,2.15-.94-.09-1.24.39-1.68,1.56-1.49.84.13,1-.26,1.03-1.03.04-1.27.21-2.54.33-3.81.23-.08.46-.22.7-.23,1.75-.1,1.75-.09,1.65-1.85,0-.14-.08-.28-.13-.44h-2.21v2.54c-.86-.05-1.71-.1-2.65-.15-.05.92-.08,1.7-.12,2.52h-2.56v.02Zm46.57,7.87c-.04.32-.08.57-.09.83-.06,1.68-.06,1.65-1.67,1.81-.3.03-.82.4-.82.6.02,1.32.16,2.63.26,3.95,1.04.08,2.08.17,3.13.24.23.02.5.08.67-.02.28-.16.66-.39.72-.65.37-1.71.34-1.72,2.06-1.83.18,0,.36-.06.63-.11v-4.82s-4.89,0-4.89,0Zm-.35,13.01c-.28-.03-.5-.07-.73-.08-1.63-.07-1.59-.07-1.8-1.68-.04-.3-.49-.75-.78-.78-1.01-.1-2.04,0-3.06-.04-.73-.02-.96.26-1,1-.06.99.33,1.26,1.24,1.21.5-.03,1.21-.28,1.32.63.07.59-.05,1.44.28,1.69.43.33,1.22.17,1.85.23.23.02.45.06.68.07,2.13.15,2.26.02,2-2.25h0Zm5.29-18.13c-1.49,0-2.92-.04-4.34.04-.22.01-.56.62-.56.95,0,.44.28,1.22.49,1.24,1.46.11,2.92.06,4.41.06v-2.29h0Z"/>
    <path class="cls-2" d="m111.02,5.1c-.04-.79-.09-1.57-.14-2.5h10.41l-.03-.03c.02,1.02.04,2.04.07,3.07.04,1.4-.64,2.14-2.03,2.23-.14,0-.28.07-.53.13,0,.46-.03.91,0,1.35.06.77-.22,1.14-1.04,1.05-.37-.04-.77.05-1.13-.03-.23-.05-.55-.27-.6-.48-.44-1.62-.01-2.18,1.61-2.22.29,0,.58-.06.91-.09v-2.42c-1.31,0-2.55.01-3.79,0-1.25-.01-2.5-.05-3.74-.08,0,0,.03.02.03.02Z"/>
    <path class="cls-2" d="m139.3,5.1h2.5v2.55c.9.04,1.68.08,2.52.12v2.58l.03-.02h-5.07v2.49c-2.76.44-3.34-.17-2.51-2.59.35,0,.73-.04,1.1,0,1.02.12,1.42-.23,1.36-1.32-.07-1.28.06-2.57.11-3.85l-.03.03h-.01Z"/>
    <path class="cls-3" d="m139.33,5.07c-.04,1.28-.18,2.57-.11,3.85.06,1.09-.34,1.44-1.36,1.32-.37-.04-.75,0-1.1,0-.83,2.42-.25,3.03,2.51,2.59v-2.49h5.07c-.03,1.33-.1,2.66-.07,3.99.02.77-.27,1.01-1,.98-.95-.04-1.9.04-2.85-.02-.93-.06-1.35.25-1.23,1.22.06.48,0,.97,0,1.6h5.12v2.44c-.84.04-1.62.07-2.49.11-.04.81-.08,1.55-.12,2.36h-2.2c-.12-.79,0-1.87-.45-2.3-.43-.39-1.5-.08-2.49-.08.04.84-.2,1.88.21,2.39.36.45,1.46.32,2.43.48-.06,1.35-.08,2.74-.24,4.12-.02.21-.69.49-1.06.5-2.81.04-5.63.03-8.44.03-2.32,0-4.64-.02-6.96,0-.81,0-1.19-.24-1.16-1.11.05-1.21.01-2.42.01-3.82h5.18c.34,0,.69.05,1.03,0,1.09-.17,1.56.26,1.38,1.36-.18,1.1.29,1.49,1.39,1.38.94-.09,1.9-.07,2.85,0,.8.05,1.12-.26,1.06-1.04-.04-.56-.06-1.11-.1-1.78h-4.98v-2.48c1.28,0,2.6-.05,3.91.02.92.05,1.39-.24,1.25-1.2-.16-1.11.39-1.41,1.37-1.27,1.33.18,1.08-.76,1.13-1.54.05-.82-.05-1.37-1.13-1.33-1.56.06-1.56,0-1.77,2.6-1.2,0-2.44.06-3.67-.02-1.1-.07-1.68.23-1.5,1.44.13.88-.16,1.12-1.14,1.06-2.11-.14-4.23-.04-6.29-.04-.11.46-.17.6-.18.75-.16,1.75-.16,1.78-1.96,1.96-.75.08-.77.56-.7,1.04.19,1.27-.4,1.54-1.55,1.48-1.63-.08-3.27-.03-4.9-.02-.56,0-.96-.09-.96-.79.02-2.16,0-4.33,0-6.59h4.9v2.41h2.67v-5h5c.1.86-.07,1.92.38,2.41.38.41,1.48.15,2.47.2,0-1.46.04-2.78,0-4.1-.04-.87.21-1.23,1.15-1.17,1.28.08,2.56.02,3.97.02v-4.97c.29-.06.47-.12.65-.13,1.76-.1,1.79-.09,1.97-1.84.07-.7.47-.75,1-.77,1.36-.05,2.73-.12,4.09-.18l.02-.03Z"/>
    <path class="cls-3" d="m111,5.08c1.25.03,2.5.06,3.74.08,1.24.01,2.48,0,3.79,0v2.42c-.33.03-.62.08-.91.09-1.63.04-2.06.6-1.61,2.22.06.21.37.43.6.48.36.08.76,0,1.13.03.81.09,1.09-.28,1.04-1.05-.03-.44,0-.89,0-1.35.25-.06.39-.12.53-.13,1.39-.09,2.07-.83,2.03-2.23-.03-1.02-.04-2.04-.07-3.07h5c0,1.43.06,2.74-.02,4.05-.06,1.02.31,1.42,1.3,1.27,1.08-.17,1.39.42,1.19,1.32-.07.33-.46.77-.76.82-1.68.27-1.68.24-1.75,1.92,0,.22-.06.44-.11.8h-9.94c-.63.92.61,2.76-1.6,2.56-1.91-.17-.34-1.76-1.07-2.38-.06-.04-.13-.1-.19-.1-1.64-.13-2.49.62-2.54,2.25,0,.27-.03.53-.04.8-.06,1.73-.06,1.76-1.74,1.95-.84.09-.87.63-.8,1.22.14,1.06-.3,1.4-1.33,1.39-1.13-.02-2.27.13-3.52.21v-5.16h5.03v-2.68h-2.43v-2.34c.74-.04,1.51-.08,2.36-.13.04-.85.07-1.63.11-2.49h2.39c.04.8.09,1.58.14,2.46h2.55v-2.56c-.82-.05-1.6-.09-2.49-.14v-2.52h0Z"/>
    <path class="cls-3" d="m144.56,20.7h4.89v4.82c-.27.05-.45.1-.63.11-1.72.11-1.69.11-2.06,1.83-.06.26-.44.5-.72.65-.18.1-.45.03-.67.02-1.04-.08-2.08-.16-3.13-.24-.1-1.32-.24-2.63-.26-3.95,0-.2.52-.57.82-.6,1.61-.16,1.61-.13,1.67-1.81,0-.26.06-.51.09-.83Z"/>
    <path class="cls-3" d="m97.99,12.83h2.56c.04-.82.08-1.6.12-2.52.94.05,1.79.1,2.65.15v-.02c-.13,1.27-.3,2.54-.34,3.81-.02.76-.19,1.16-1.03,1.03-1.16-.18-1.65.26-1.56,1.49.08,1.12-.18,1.2-2.15.94-.08-1.62-.16-3.27-.23-4.92l-.03.03h0Z"/>
    <path class="cls-3" d="m144.21,33.72c.26,2.26.13,2.4-2,2.25-.23-.02-.45-.05-.68-.07-.64-.06-1.43.1-1.85-.23-.33-.25-.21-1.11-.28-1.69-.1-.91-.81-.66-1.32-.63-.91.05-1.3-.22-1.24-1.21.04-.73.27-1.02,1-1,1.02.03,2.05-.05,3.06.04.29.03.74.48.78.78.21,1.61.17,1.61,1.8,1.68.22,0,.44.05.73.08h0Z"/>
    <path class="cls-3" d="m134,2.52v2.53c-.83.04-1.6.07-2.47.11-.04.8-.08,1.54-.12,2.36h-2.27V2.57h4.91l-.04-.04h-.01Z"/>
    <path class="cls-3" d="m149.5,15.59v2.29c-1.49,0-2.96.05-4.41-.06-.21-.02-.48-.8-.49-1.24,0-.33.34-.94.56-.95,1.42-.09,2.86-.04,4.34-.04h0Z"/>
    <path class="cls-3" d="m103.32,10.47v-2.54h2.21c.05.16.12.3.13.44.11,1.75.1,1.74-1.65,1.85-.24.01-.47.15-.7.23v.02Z"/>
  </g>
</svg>